# xmcd
#
# Track frame offsets:
#	150
#	13545
#	28719
#	47451
#	63454
#	80001
#	98148
#
# Disc length: 1584 seconds
#
# Revision: 1
# Processed by: cddbd v1.5.2PL0 Copyright (c) Steve Scherf et al.
# Submitted via: audiograbber 1.83.01
#
DISCID=4e062e07
DTITLE=Miley Cyrus - The Time of Our Lives
DYEAR=2009
DGENRE=Popular
TTITLE0=Kicking And Screaming
TTITLE1=Party In The U.S.A.
TTITLE2=When I Look At You
TTITLE3=Time Of Our Lives
TTITLE4=Talk Is Cheap
TTITLE5=Obsessed
TTITLE6=Before The Storm [Live]
EXTD=
EXTT0=
EXTT1=
EXTT2=
EXTT3=
EXTT4=
EXTT5=
EXTT6=
PLAYORDER=
